<?xml version="1.0" standalone="no"?>
<!DOCTYPE svg PUBLIC "-//W3C//DTD SVG 20010904//EN"
 "http://www.w3.org/TR/2001/REC-SVG-20010904/DTD/svg10.dtd">
<svg version="1.0" xmlns="http://www.w3.org/2000/svg"
 width="812.000000pt" height="1378.000000pt" viewBox="0 0 812.000000 1378.000000"
 preserveAspectRatio="xMidYMid meet">

<g transform="translate(0.000000,1378.000000) scale(0.100000,-0.100000)"
fill="#000000" stroke="none">
<path d="M1137 13716 c-5 -13 -24 -16 -97 -16 -53 0 -90 4 -90 10 0 6 -4 10
-10 10 -5 0 -10 -9 -10 -20 0 -19 7 -20 110 -20 91 0 112 3 117 16 3 8 1 20
-4 25 -7 7 -12 5 -16 -5z"/>
<path d="M3930 13595 c0 -8 5 -15 10 -15 6 0 10 7 10 15 0 8 -4 15 -10 15 -5
0 -10 -7 -10 -15z"/>
<path d="M4080 13590 c0 -5 5 -10 11 -10 5 0 7 5 4 10 -3 6 -8 10 -11 10 -2 0
-4 -4 -4 -10z"/>
<path d="M1987 13458 c-4 -13 -7 -107 -7 -210 l0 -188 135 -1 c74 -1 140 -3
145 -4 6 -1 15 -3 20 -4 7 -1 10 -286 8 -898 l-3 -898 -195 -3 c-132 -2 -197
-6 -201 -14 -4 -6 -7 -36 -6 -66 l2 -54 196 1 c172 2 197 0 203 -14 3 -9 6
-198 6 -421 0 -298 -4 -410 -12 -424 -10 -15 -10 -22 0 -32 9 -9 12 -91 12
-324 0 -261 -2 -314 -15 -324 -11 -9 -64 -10 -212 -6 -264 8 -416 7 -426 -3
-4 -4 -4 -35 -1 -69 l7 -62 401 2 401 3 3 1925 c1 1059 4 1931 7 1938 4 10
128 12 635 10 l630 -3 0 28 c0 20 5 27 20 27 11 0 20 5 20 10 0 6 -8 10 -17 8
-14 -2 -18 4 -18 32 -1 19 -4 40 -7 46 -5 7 -268 11 -866 13 l-859 3 -6 -24z
m1720 -48 c3 -89 71 -80 -633 -80 -343 1 -629 -2 -634 -5 -6 -4 -10 -695 -10
-1932 0 -1060 -1 -1928 -3 -1929 -4 -4 -144 -5 -474 -5 l-303 1 0 50 0 50 325
0 325 0 0 785 0 785 -77 0 c-43 1 -132 2 -198 3 l-120 2 0 50 0 50 198 3 197
2 0 378 c0 207 1 618 1 912 l2 535 -149 5 -149 5 -3 193 -2 192 852 -2 853 -3
2 -45z"/>
<path d="M4680 13460 c0 -5 -6 -10 -14 -10 -8 0 -18 -5 -22 -12 -5 -8 -2 -9
10 -5 20 8 31 -14 21 -40 -6 -17 -7 -17 -19 -1 -11 15 -37 17 -217 17 -192 1
-205 2 -221 21 -10 12 -19 16 -23 10 -8 -14 -422 -14 -430 0 -3 6 -10 10 -16
10 -5 0 -5 -7 2 -17 10 -16 31 -18 216 -18 195 0 206 -1 217 -20 6 -11 12 -22
14 -25 2 -2 7 1 11 8 10 16 409 18 425 2 6 -6 18 -10 28 -10 13 0 18 -8 18
-30 0 -29 2 -30 45 -30 l45 0 0 -230 0 -230 30 0 c19 0 30 -5 30 -14 0 -8 5
-18 11 -22 8 -4 9 1 4 16 -6 20 -4 21 27 19 64 -4 68 3 68 107 l0 94 130 0
130 0 0 210 0 210 -260 0 c-167 0 -260 -4 -260 -10z m436 -9 l71 -1 -1 -185
c-1 -101 -5 -187 -9 -191 -4 -4 -62 -7 -129 -8 l-123 -1 -3 -97 -3 -98 -64 0
-65 0 0 230 0 230 -45 0 -45 0 0 59 c0 38 5 61 13 65 6 3 84 3 172 1 88 -2
192 -4 231 -4z"/>
<path d="M3705 13280 c-4 -6 3 -10 14 -10 25 0 27 6 6 13 -8 4 -17 2 -20 -3z"/>
<path d="M4665 13270 c-19 -8 -19 -9 2 -9 12 -1 25 4 28 9 7 12 -2 12 -30 0z"/>
<path d="M2490 13054 c0 -66 3 -84 14 -84 11 0 15 19 18 80 3 68 1 80 -14 84
-16 4 -18 -5 -18 -80z"/>
<path d="M4120 12990 c0 -5 5 -10 10 -10 6 0 10 5 10 10 0 6 -4 10 -10 10 -5
0 -10 -4 -10 -10z"/>
<path d="M4725 12860 c-3 -5 -1 -10 4 -10 6 0 11 5 11 10 0 6 -2 10 -4 10 -3
0 -8 -4 -11 -10z"/>
<path d="M4880 12820 c-17 -4 -21 -8 -12 -14 9 -5 12 -58 12 -201 l0 -193 -27
-21 c-16 -11 -22 -21 -15 -21 6 0 12 -9 12 -21 0 -20 0 -20 29 3 17 14 25 27
20 32 -14 16 -11 410 3 424 16 16 8 20 -22 12z"/>
<path d="M828 12448 c-10 -10 -13 -18 -8 -18 18 0 11 -33 -12 -59 -20 -21 -18
-21 13 4 42 34 51 55 35 76 -10 13 -13 12 -28 -3z"/>
<path d="M1000 12461 c0 -5 9 -11 21 -14 16 -4 18 -3 8 9 -13 16 -29 19 -29 5z"/>
<path d="M1076 12455 c-3 -8 -1 -15 4 -15 6 0 10 7 10 15 0 8 -2 15 -4 15 -2
0 -6 -7 -10 -15z"/>
<path d="M1235 12460 c-3 -5 3 -10 15 -10 12 0 18 5 15 10 -3 6 -10 10 -15 10
-5 0 -12 -4 -15 -10z"/>
<path d="M1433 12452 c10 -11 15 -26 12 -35 -4 -8 -2 -18 4 -22 6 -3 11 -1 11
6 0 7 9 6 28 -5 26 -16 26 -16 -3 8 -25 22 -28 29 -19 44 10 16 8 18 -19 20
-29 3 -30 2 -14 -16z"/>
<path d="M1498 12463 c6 -2 18 -2 25 0 6 3 1 5 -13 5 -14 0 -19 -2 -12 -5z"/>
<path d="M1115 12450 c3 -5 8 -10 11 -10 2 0 4 5 4 10 0 6 -5 10 -11 10 -5 0
-7 -4 -4 -10z"/>
<path d="M1180 12449 c0 -5 5 -7 10 -4 6 3 10 8 10 11 0 2 -4 4 -10 4 -5 0
-10 -5 -10 -11z"/>
<path d="M772 12378 l2 -63 3 55 c3 30 10 58 16 62 8 5 6 8 -5 8 -16 0 -18 -9
-16 -62z"/>
<path d="M898 12433 c12 -5 18 -73 5 -73 -3 0 -14 6 -23 13 -9 6 -5 2 8 -11
13 -13 21 -29 18 -37 -3 -8 -1 -15 4 -15 6 0 10 29 10 65 0 56 -3 65 -17 64
-11 0 -13 -3 -5 -6z"/>
<path d="M1223 12432 c-12 -8 -16 -25 -14 -60 0 -13 5 -21 9 -18 5 3 7 19 4
36 -3 23 -1 30 13 30 10 0 15 -5 12 -13 -3 -8 -1 -20 4 -28 6 -10 9 -5 9 17 0
32 -17 48 -37 36z"/>
<path d="M1026 12415 c-4 -12 -12 -14 -28 -9 -13 3 -20 3 -16 -1 10 -10 57
-15 62 -6 3 4 1 13 -3 20 -6 10 -10 9 -15 -4z"/>
<path d="M1285 12419 c-4 -6 -5 -12 -2 -15 2 -3 7 2 10 11 7 17 1 20 -8 4z"/>
<path d="M1315 12420 c3 -5 8 -10 11 -10 2 0 4 5 4 10 0 6 -5 10 -11 10 -5 0
-7 -4 -4 -10z"/>
<path d="M1074 12405 c-3 -8 -4 -20 -2 -27 3 -7 7 -1 10 15 6 29 1 36 -8 12z"/>
<path d="M980 12359 c0 -5 5 -7 10 -4 6 3 10 8 10 11 0 2 -4 4 -10 4 -5 0 -10
-5 -10 -11z"/>
<path d="M1030 12360 c12 -8 13 -13 2 -30 -10 -17 -10 -20 3 -20 10 0 15 10
15 30 0 22 -5 30 -17 30 -15 0 -16 -2 -3 -10z"/>
<path d="M1070 12345 c0 -5 5 -17 10 -25 5 -8 10 -10 10 -5 0 6 -5 17 -10 25
-5 8 -10 11 -10 5z"/>
<path d="M1112 12335 c-11 -12 -10 -15 3 -15 8 0 15 7 15 15 0 18 -2 18 -18 0z"/>
<path d="M1166 12334 c-4 -9 -4 -19 -1 -22 2 -3 7 3 11 12 4 9 4 19 1 22 -2 3
-7 -3 -11 -12z"/>
<path d="M1206 12331 c-4 -7 -5 -15 -2 -18 9 -9 19 4 14 18 -4 11 -6 11 -12 0z"/>
<path d="M1235 12330 c3 -5 11 -10 16 -10 6 0 7 5 4 10 -3 6 -11 10 -16 10 -6
0 -7 -4 -4 -10z"/>
<path d="M975 12320 c3 -5 11 -10 16 -10 6 0 7 5 4 10 -3 6 -11 10 -16 10 -6
0 -7 -4 -4 -10z"/>
<path d="M3495 12320 c-4 -6 3 -10 14 -10 25 0 27 6 6 13 -8 4 -17 2 -20 -3z"/>
<path d="M3426 12304 c-8 -22 -4 -25 11 -9 7 8 9 16 4 19 -5 3 -12 -1 -15 -10z"/>
<path d="M3570 12313 c0 -4 5 -15 10 -23 8 -13 10 -13 10 2 0 9 -4 20 -10 23
-5 3 -10 3 -10 -2z"/>
<path d="M4864 12160 c0 -91 2 -128 3 -82 2 45 2 119 0 165 -1 45 -3 8 -3 -83z"/>
<path d="M3752 12298 c-20 -20 -14 -33 7 -14 22 20 51 12 51 -15 0 -10 -9 -23
-19 -29 -29 -15 -51 -40 -51 -56 0 -10 12 -14 43 -12 36 1 38 2 10 5 -41 5
-43 27 -4 47 24 13 41 34 41 51 0 2 -7 11 -16 19 -18 19 -45 21 -62 4z"/>
<path d="M3305 12286 c16 -12 17 -16 6 -30 -9 -11 -10 -16 -2 -16 20 0 12 -20
-11 -30 l-23 -9 22 0 c12 -1 24 -9 26 -18 4 -17 5 -17 6 0 1 10 9 17 24 18
l22 0 -22 9 c-25 10 -30 26 -10 33 9 4 8 8 -3 16 -13 9 -12 12 5 25 19 15 18
15 -19 16 -37 0 -38 -1 -21 -14z"/>
<path d="M3480 12274 c0 -9 -8 -22 -17 -29 -16 -12 -14 -12 10 -8 20 4 27 1
27 -10 0 -9 -10 -18 -22 -20 l-23 -4 23 -2 c14 0 22 -6 20 -15 -2 -8 2 -15 7
-15 6 -1 10 2 10 7 0 4 4 12 8 19 4 6 2 15 -4 18 -5 4 -8 14 -5 22 3 8 2 11
-3 8 -5 -3 -13 0 -17 6 -7 12 15 31 31 26 6 -2 10 -10 10 -17 0 -7 6 -15 14
-18 10 -3 12 0 8 12 -4 10 -7 22 -7 27 0 5 -16 9 -35 9 -26 0 -35 -4 -35 -16z"/>
<path d="M3238 12199 c-9 -16 -14 -29 -9 -29 8 0 34 50 29 56 -2 1 -11 -11
-20 -27z"/>
<path d="M4848 11955 c-10 -13 -18 -29 -18 -34 0 -6 -9 -11 -19 -11 -45 0 -46
-4 -43 -140 l3 -130 52 -1 c29 -1 72 -3 97 -4 25 -2 132 -3 237 -4 l193 -1 2
-487 3 -488 533 -3 532 -2 0 -58 c1 -31 2 -203 3 -382 l2 -325 195 -5 c179 -5
195 -6 192 -22 -2 -13 4 -18 18 -18 12 0 19 -4 16 -9 -3 -5 2 -15 11 -22 14
-12 15 -11 9 9 -7 21 -4 22 39 22 l46 0 -3 88 -3 87 -130 2 c-71 2 -149 3
-173 3 l-42 0 2 313 3 312 168 3 c94 1 167 7 167 12 0 5 -4 19 -10 32 -5 13
-66 192 -135 398 -69 206 -130 387 -136 403 l-11 27 -563 0 c-470 0 -564 2
-568 14 -3 7 -6 61 -6 120 0 58 0 113 -1 121 0 13 -41 15 -282 17 l-283 3 -3
45 c-4 56 -18 73 -52 67 -14 -3 -32 -1 -40 4 -13 8 -12 11 3 23 10 8 17 21 15
29 -2 12 -7 9 -20 -8z m70 -122 l3 -53 97 -1 c53 -1 174 -1 267 0 94 1 180 -1
193 -4 21 -5 22 -9 22 -134 l0 -129 44 -3 c25 -2 280 -6 568 -7 288 -2 524 -5
526 -7 5 -5 282 -822 282 -831 0 -2 -75 -5 -167 -6 l-168 -3 0 -325 0 -325
175 -5 175 -5 3 -67 3 -68 -48 0 c-37 0 -51 5 -61 20 -11 19 -23 20 -202 20
l-190 0 0 380 0 380 -177 0 c-98 1 -275 2 -393 4 -118 2 -279 4 -357 5 l-143
1 -2 488 -3 487 -287 3 -288 2 0 121 0 120 63 -3 62 -3 3 -52z"/>
<path d="M4720 11910 c0 -11 4 -20 9 -20 5 0 7 9 4 20 -3 11 -7 20 -9 20 -2 0
-4 -9 -4 -20z"/>
<path d="M3306 11882 c-3 -5 1 -15 9 -22 16 -14 20 -3 6 19 -5 8 -11 9 -15 3z"/>
<path d="M3376 11881 c-4 -7 -5 -15 -2 -18 9 -9 19 4 14 18 -4 11 -6 11 -12 0z"/>
<path d="M3726 11875 c-19 -14 -18 -15 13 -15 29 0 32 2 21 15 -7 8 -13 15
-14 15 0 0 -10 -7 -20 -15z"/>
<path d="M3498 11873 c6 -2 18 -2 25 0 6 3 1 5 -13 5 -14 0 -19 -2 -12 -5z"/>
<path d="M3622 11868 c-6 -6 -11 -28 -11 -47 l2 -36 6 40 c6 42 35 60 53 33 8
-10 9 -10 5 2 -5 19 -39 24 -55 8z"/>
<path d="M3810 11870 c0 -5 5 -10 10 -10 6 0 10 5 10 10 0 6 -4 10 -10 10 -5
0 -10 -4 -10 -10z"/>
<path d="M3425 11860 c3 -5 8 -10 11 -10 2 0 4 5 4 10 0 6 -5 10 -11 10 -5 0
-7 -4 -4 -10z"/>
<path d="M3467 11848 c-6 -22 5 -78 16 -78 1 0 3 12 2 28 0 20 5 27 20 27 15
0 20 -7 20 -27 -1 -14 3 -24 7 -22 26 16 -8 72 -36 61 -10 -4 -16 2 -18 16 -3
20 -4 20 -11 -5z"/>
<path d="M3300 11830 c0 -13 20 -13 40 0 12 8 9 10 -12 10 -16 0 -28 -4 -28
-10z"/>
<path d="M3800 11830 c-8 -5 -18 -6 -22 -4 -4 3 -8 0 -8 -5 0 -6 -7 -11 -15
-11 -8 0 -15 -4 -15 -10 0 -14 10 -12 45 6 16 8 37 13 47 11 23 -6 23 0 0 12
-10 6 -24 6 -32 1z"/>
<path d="M3665 11780 c-3 -5 -13 -6 -23 -3 -14 5 -15 3 -4 -8 10 -11 15 -10
29 4 10 9 14 17 11 17 -4 0 -9 -4 -13 -10z"/>
<path d="M3846 11781 c-4 -7 -5 -15 -2 -18 9 -9 19 4 14 18 -4 11 -6 11 -12 0z"/>
<path d="M4785 11590 c3 -5 8 -10 11 -10 2 0 4 5 4 10 0 6 -5 10 -11 10 -5 0
-7 -4 -4 -10z"/>
<path d="M4825 11582 c-16 -10 -32 -18 -34 -19 -2 -2 -1 -6 2 -9 4 -4 13 -1
22 6 8 7 15 9 15 6 0 -4 9 -2 20 4 11 6 20 15 20 20 0 13 -9 11 -45 -8z"/>
<path d="M5185 11530 c-3 -5 1 -10 9 -10 9 0 16 5 16 10 0 6 -4 10 -9 10 -6 0
-13 -4 -16 -10z"/>
<path d="M5237 11503 c-5 -26 -4 -26 9 -8 16 22 18 35 5 35 -5 0 -11 -12 -14
-27z"/>
<path d="M2507 11480 c-21 -25 -21 -26 3 -52 l20 -22 0 47 c0 26 -1 47 -3 47
-1 0 -10 -9 -20 -20z"/>
<path d="M5200 11449 c-22 -18 -22 -19 -3 -10 12 6 25 16 28 21 9 15 3 12 -25
-11z"/>
<path d="M5150 11355 c0 -25 3 -45 8 -45 4 0 7 20 7 45 0 25 -3 45 -7 45 -5 0
-8 -20 -8 -45z"/>
<path d="M5239 11391 c10 -6 12 -20 8 -45 -3 -20 -2 -36 4 -36 5 0 9 20 9 45
0 36 -3 45 -17 45 -15 0 -15 -2 -4 -9z"/>
<path d="M70 11280 c0 -7 135 -10 395 -10 309 0 395 -3 395 -12 1 -36 1 -324
1 -560 l-1 -268 -80 0 -80 0 0 -435 0 -435 95 0 95 0 0 -50 0 -50 -95 0 -95 0
-1 -352 c0 -194 -2 -1929 -5 -3855 l-5 -3503 23 -2 c13 -1 169 -2 348 -3 179
-2 355 -3 393 -4 l67 -1 0 -50 0 -50 -225 0 -225 0 -2 -453 -3 -452 -445 0
-445 0 -3 371 -2 371 -50 2 c-28 0 -50 -4 -50 -9 0 -6 20 -10 45 -10 l45 0 0
-370 0 -370 428 -2 c235 -2 442 -2 460 0 l32 3 0 450 0 449 53 0 c28 0 127 1
219 1 186 1 194 4 190 65 -2 25 1 34 13 34 8 0 15 -6 15 -12 0 -10 76 -12 356
-10 351 3 357 2 379 -18 15 -14 25 -18 30 -11 9 16 717 15 733 -1 9 -9 12 -8
12 5 0 16 -28 17 -363 17 -240 0 -367 4 -373 10 -7 7 -136 11 -382 10 -242 0
-373 3 -377 10 -3 5 -15 10 -26 10 -10 0 -19 7 -19 15 0 13 -53 15 -415 15
l-415 0 0 3840 0 3839 98 3 97 3 3 38 c2 27 8 37 20 37 16 1 16 1 0 11 -10 5
-18 19 -18 29 0 17 -9 20 -97 22 l-98 3 0 410 0 410 80 5 80 5 0 435 0 435
-402 3 c-267 1 -403 -1 -403 -8z"/>
<path d="M5203 11230 c0 -25 2 -35 4 -22 2 12 2 32 0 45 -2 12 -4 2 -4 -23z"/>
<path d="M5177 11126 c-4 -9 -3 -26 2 -38 l8 -22 6 24 c8 29 -7 61 -16 36z"/>
<path d="M5240 11110 c0 -5 5 -10 10 -10 6 0 10 5 10 10 0 6 -4 10 -10 10 -5
0 -10 -4 -10 -10z"/>
<path d="M3580 11061 c0 -6 5 -13 10 -16 6 -3 10 1 10 9 0 9 -4 16 -10 16 -5
0 -10 -4 -10 -9z"/>
<path d="M4750 11034 c-25 -14 -36 -22 -25 -18 11 4 35 12 53 18 17 6 32 14
32 18 0 12 -12 9 -60 -18z"/>
<path d="M5180 11056 c0 -2 7 -7 16 -10 8 -3 12 -2 9 4 -6 10 -25 14 -25 6z"/>
<path d="M4640 10985 c-25 -13 -40 -24 -35 -24 6 0 30 11 55 24 25 13 41 24
35 24 -5 0 -30 -11 -55 -24z"/>
<path d="M4555 10948 c-30 -16 -31 -18 -15 -28 21 -13 33 -12 24 2 -4 6 1 17
11 25 23 16 8 17 -20 1z"/>
<path d="M4649 10874 c40 -19 76 -32 79 -30 3 3 -4 9 -14 12 -10 4 -43 18 -73
31 -81 35 -76 26 8 -13z"/>
<path d="M5192 10855 c0 -56 1 -58 8 -20 4 22 4 49 -1 60 -5 13 -8 0 -7 -40z"/>
<path d="M4757 10829 c13 -7 25 -20 28 -30 4 -11 13 -19 21 -19 10 0 12 -5 8
-12 -5 -9 -2 -9 9 1 11 9 17 10 17 2 0 -6 7 -11 16 -11 14 0 14 3 4 15 -7 8
-21 15 -31 15 -11 0 -19 6 -19 14 0 7 -8 16 -17 19 -10 2 -27 8 -38 11 -16 5
-15 4 2 -5z"/>
<path d="M3868 10801 c12 -7 62 -4 62 5 0 2 -17 4 -37 4 -24 0 -33 -3 -25 -9z"/>
<path d="M3878 10763 c7 -3 16 -2 19 1 4 3 -2 6 -13 5 -11 0 -14 -3 -6 -6z"/>
<path d="M3045 10720 c-3 -6 1 -7 9 -4 18 7 21 14 7 14 -6 0 -13 -4 -16 -10z"/>
<path d="M3007 10713 c-3 -5 5 -15 18 -21 15 -7 26 -8 30 -2 4 6 -3 10 -14 10
-10 0 -21 5 -23 12 -3 8 -6 9 -11 1z"/>
<path d="M2895 10700 c3 -5 10 -10 16 -10 5 0 9 5 9 10 0 6 -7 10 -16 10 -8 0
-12 -4 -9 -10z"/>
<path d="M3725 10703 c-20 -4 -20 -11 -20 -333 0 -182 3 -330 8 -330 4 0 7
144 7 320 0 293 1 320 17 329 21 11 15 18 -12 14z"/>
<path d="M6196 10595 c5 -11 24 -15 81 -15 53 0 79 4 89 15 14 13 5 15 -80 15
-81 0 -94 -2 -90 -15z"/>
<path d="M2937 10548 c9 -10 24 -18 35 -18 10 0 18 -4 18 -9 0 -9 180 -94 186
-88 2 2 -32 21 -76 41 -44 21 -80 42 -80 47 0 5 -7 9 -15 9 -9 0 -19 8 -23 18
-4 10 -18 17 -34 17 -26 1 -26 0 -11 -17z"/>
<path d="M3204 10415 c18 -14 18 -15 -17 -30 -20 -8 -39 -15 -41 -15 -3 0 -20
-9 -38 -21 -28 -17 -29 -19 -8 -14 25 7 150 65 150 70 0 2 -15 8 -32 14 -30
10 -31 9 -14 -4z"/>
<path d="M300 10350 c129 -3 237 -7 239 -8 2 -1 1 -912 -2 -2024 -4 -1113 -7
-3079 -7 -4370 l0 -2348 -230 0 c-149 0 -230 -4 -230 -10 0 -7 81 -9 238 -8
l237 3 3 4388 2 4387 -242 -2 -243 -2 235 -6z"/>
<path d="M3023 10317 c-18 -6 -33 -15 -33 -19 0 -5 17 -1 37 7 61 26 58 32 -4
12z"/>
<path d="M1890 10251 c0 -12 5 -21 10 -21 6 0 10 6 10 14 0 8 -4 18 -10 21 -5
3 -10 -3 -10 -14z"/>
<path d="M2786 10181 c-3 -5 1 -11 9 -15 8 -3 15 -1 15 4 0 13 -18 22 -24 11z"/>
<path d="M2622 10160 c-16 -26 -17 -25 28 -27 29 -1 40 2 40 13 0 8 -10 14
-24 14 -13 0 -26 5 -28 10 -2 6 -9 1 -16 -10z"/>
<path d="M2557 10164 c-14 -14 -7 -30 13 -30 13 0 20 6 18 15 -3 16 -21 25
-31 15z"/>
<path d="M2790 10127 c0 -13 6 -24 13 -24 9 0 12 9 9 24 -2 13 -8 23 -13 23
-5 0 -9 -10 -9 -23z"/>
<path d="M2564 10098 c-10 -13 -15 -20 -10 -16 5 4 16 2 24 -5 11 -8 14 -8 9
0 -4 6 -3 14 3 18 12 7 13 25 2 25 -5 0 -17 -10 -28 -22z"/>
<path d="M2640 10070 c-6 -11 -8 -20 -6 -20 3 0 10 9 16 20 6 11 8 20 6 20 -3
0 -10 -9 -16 -20z"/>
<path d="M2756 10069 c-11 -11 -15 -19 -9 -19 12 0 38 28 32 34 -2 2 -13 -5
-23 -15z"/>
<path d="M2677 10063 c-4 -3 -7 -11 -7 -17 0 -6 5 -5 12 2 6 6 9 14 7 17 -3 3
-9 2 -12 -2z"/>
<path d="M2835 10060 c3 -5 11 -10 16 -10 6 0 7 5 4 10 -3 6 -11 10 -16 10 -6
0 -7 -4 -4 -10z"/>
<path d="M1990 9940 c0 -19 3 -21 12 -12 9 9 9 15 0 24 -9 9 -12 7 -12 -12z"/>
<path d="M2053 9944 c-3 -8 -2 -19 4 -25 5 -5 9 1 11 16 2 28 -6 33 -15 9z"/>
<path d="M2020 9890 c0 -5 5 -10 10 -10 6 0 10 5 10 10 0 6 -4 10 -10 10 -5 0
-10 -4 -10 -10z"/>
<path d="M6370 9856 c0 -9 5 -16 10 -16 6 0 10 4 10 9 0 6 -4 13 -10 16 -5 3
-10 -1 -10 -9z"/>
<path d="M6770 9835 c0 -8 2 -15 4 -15 2 0 6 7 10 15 3 8 1 15 -4 15 -6 0 -10
-7 -10 -15z"/>
<path d="M6903 9813 c-10 -3 -13 -60 -13 -233 0 -223 -1 -230 -21 -241 -15 -8
-18 -14 -10 -22 7 -7 11 -84 11 -233 0 -181 -3 -224 -14 -234 -8 -6 -12 -18
-9 -26 3 -9 -2 -14 -16 -14 -15 0 -21 -5 -19 -17 3 -17 -13 -18 -194 -21
l-198 -2 -1 -463 c-1 -572 0 -610 12 -621 5 -6 9 196 9 532 l0 542 195 0 c167
0 195 2 195 15 0 11 13 15 53 15 l53 0 -1 -62 0 -62 -34 -7 c-18 -4 -92 -7
-165 -7 -72 -1 -137 -1 -143 -1 -10 -1 -13 -175 -13 -836 l0 -835 -70 0 c-66
0 -70 1 -70 23 -1 12 -1 167 -1 345 1 198 -3 322 -9 322 -12 0 -16 -161 -12
-472 l3 -238 34 0 c24 0 35 -5 35 -15 0 -8 4 -15 10 -15 5 0 7 6 4 14 -4 12 5
16 43 18 l48 3 3 838 2 837 175 0 175 0 0 84 c0 92 -3 97 -57 88 -25 -3 -33
-1 -33 11 0 8 5 17 11 19 7 2 10 77 9 230 -1 216 0 227 19 237 17 9 18 16 10
43 -5 18 -9 121 -8 229 0 157 3 201 15 218 15 21 11 24 -13 14z"/>
<path d="M2990 9731 c0 -4 16 -13 37 -19 40 -12 34 -3 -9 16 -16 6 -28 8 -28
3z"/>
<path d="M6600 9699 c0 -5 5 -7 10 -4 6 3 10 8 10 11 0 2 -4 4 -10 4 -5 0 -10
-5 -10 -11z"/>
<path d="M3100 9680 c19 -11 40 -19 45 -19 6 0 -6 8 -25 19 -19 11 -39 19 -45
19 -5 0 6 -8 25 -19z"/>
<path d="M3183 9642 c15 -9 27 -20 27 -25 0 -4 -24 -19 -52 -32 -29 -13 -49
-24 -44 -24 14 -1 126 51 126 59 0 7 -65 40 -78 40 -4 0 5 -8 21 -18z"/>
<path d="M930 9600 c0 -5 5 -10 10 -10 6 0 10 5 10 10 0 6 -4 10 -10 10 -5 0
-10 -4 -10 -10z"/>
<path d="M5076 9581 c-4 -5 -2 -12 3 -15 5 -4 12 -2 15 3 4 5 2 12 -3 15 -5 4
-12 2 -15 -3z"/>
<path d="M5000 9560 c0 -5 5 -10 10 -10 6 0 10 5 10 10 0 6 -4 10 -10 10 -5 0
-10 -4 -10 -10z"/>
<path d="M5156 9555 c4 -8 8 -15 10 -15 2 0 4 7 4 15 0 8 -4 15 -10 15 -5 0
-7 -7 -4 -15z"/>
<path d="M3038 9537 c-27 -11 -48 -26 -48 -32 0 -6 -13 -16 -30 -22 -16 -6
-30 -16 -30 -22 0 -6 14 -11 30 -11 31 0 43 19 13 21 -12 0 -8 4 10 11 15 5
27 14 27 19 0 5 21 20 48 33 57 30 45 32 -20 3z"/>
<path d="M4868 9548 c-9 -5 -6 -8 10 -8 26 0 29 -15 5 -29 -17 -10 -17 -10 0
-11 26 0 21 -30 -5 -31 l-23 0 23 -9 c12 -5 22 -15 22 -22 0 -7 5 -6 13 4 6 9
21 18 32 21 15 4 13 5 -7 6 -31 1 -40 31 -10 31 16 1 16 1 0 11 -26 15 -22 29
9 29 14 0 23 3 19 7 -10 10 -73 11 -88 1z"/>
<path d="M5350 9545 c-8 -10 -9 -15 -2 -15 6 0 13 -21 15 -47 3 -43 4 -42 5
15 1 34 0 62 -2 62 -2 0 -9 -7 -16 -15z"/>
<path d="M5059 9542 c-1 -4 -2 -13 -3 -20 0 -7 -8 -17 -16 -22 -11 -7 -4 -10
25 -10 35 1 38 2 23 14 -12 9 -14 16 -7 23 7 7 5 12 -5 16 -9 4 -17 3 -17 -1z"/>
<path d="M5118 9533 c7 -3 16 -2 19 1 4 3 -2 6 -13 5 -11 0 -14 -3 -6 -6z"/>
<path d="M5110 9510 c0 -5 7 -10 15 -10 8 0 15 5 15 10 0 6 -7 10 -15 10 -8 0
-15 -4 -15 -10z"/>
<path d="M4825 9470 c-3 -5 -1 -10 4 -10 6 0 11 5 11 10 0 6 -2 10 -4 10 -3 0
-8 -4 -11 -10z"/>
<path d="M5079 9477 c-1 -1 -3 -14 -5 -29 -2 -25 1 -28 24 -28 24 1 25 2 9 11
-14 8 -15 14 -7 24 8 9 7 14 -5 19 -8 3 -16 4 -16 3z"/>
<path d="M6466 9431 c-4 -5 -2 -12 3 -15 5 -4 12 -2 15 3 4 5 2 12 -3 15 -5 4
-12 2 -15 -3z"/>
<path d="M6410 9370 c0 -5 5 -10 11 -10 5 0 7 5 4 10 -3 6 -8 10 -11 10 -2 0
-4 -4 -4 -10z"/>
<path d="M6468 9373 c7 -3 16 -2 19 1 4 3 -2 6 -13 5 -11 0 -14 -3 -6 -6z"/>
<path d="M6525 9370 c-3 -5 -1 -10 4 -10 6 0 11 5 11 10 0 6 -2 10 -4 10 -3 0
-8 -4 -11 -10z"/>
<path d="M6477 9319 c7 -7 15 -10 18 -7 3 3 -2 9 -12 12 -14 6 -15 5 -6 -5z"/>
<path d="M1282 9247 c-7 -8 -8 -17 -4 -21 4 -4 -1 -13 -11 -21 -15 -11 -15
-14 -2 -25 21 -18 19 -35 -7 -48 -23 -11 -23 -11 3 -11 32 -1 46 33 23 56 -12
13 -12 18 -2 32 7 9 17 19 23 23 6 5 6 11 -1 18 -8 8 -14 7 -22 -3z"/>
<path d="M1400 9233 c0 -21 3 -24 9 -14 5 8 7 20 4 28 -8 21 -13 15 -13 -14z"/>
<path d="M1440 9246 c0 -8 5 -18 10 -21 6 -3 10 3 10 14 0 12 -4 21 -10 21 -5
0 -10 -6 -10 -14z"/>
<path d="M1487 9245 c-4 -8 -2 -17 3 -20 6 -4 10 3 10 14 0 25 -6 27 -13 6z"/>
<path d="M1523 9240 c5 -31 17 -36 17 -7 0 15 -4 27 -10 27 -5 0 -9 -9 -7 -20z"/>
<path d="M1454 9171 c2 -14 6 -25 10 -23 3 1 11 2 17 2 5 0 7 5 3 11 -3 6 -1
15 6 19 8 5 3 9 -13 12 -22 4 -25 2 -23 -21z"/>
<path d="M1330 9147 c0 -8 7 -17 15 -21 8 -3 15 -2 15 3 0 5 -7 14 -15 21 -12
10 -15 10 -15 -3z"/>
<path d="M4894 9124 c4 -9 1 -23 -5 -30 -9 -11 -6 -14 15 -14 14 0 26 5 26 11
0 5 -5 7 -12 3 -7 -5 -9 0 -6 14 4 13 0 23 -9 26 -11 5 -13 2 -9 -10z"/>
<path d="M4955 9130 c-3 -5 -1 -10 4 -10 6 0 11 5 11 10 0 6 -2 10 -4 10 -3 0
-8 -4 -11 -10z"/>
<path d="M5060 9136 c0 -2 14 -6 30 -8 17 -3 30 -1 30 4 0 4 -13 8 -30 8 -16
0 -30 -2 -30 -4z"/>
<path d="M5200 9119 c-6 -11 -9 -30 -7 -42 4 -20 4 -20 6 3 2 42 17 57 41 42
11 -7 20 -8 20 -3 0 9 -23 21 -40 21 -5 0 -14 -9 -20 -21z"/>
<path d="M5306 9131 c-3 -5 0 -11 7 -13 17 -7 38 2 31 13 -7 12 -31 12 -38 0z"/>
<path d="M5353 9075 c-18 -8 -33 -19 -33 -24 0 -6 15 -2 33 8 17 10 39 20 47
24 13 5 13 5 0 6 -8 0 -30 -6 -47 -14z"/>
<path d="M3876 9053 c-4 -9 -2 -21 4 -27 7 -7 10 -2 10 17 0 31 -5 34 -14 10z"/>
<path d="M2898 9048 c9 -9 15 -9 24 0 9 9 7 12 -12 12 -19 0 -21 -3 -12 -12z"/>
<path d="M5211 9037 c16 -18 49 -14 49 5 0 6 -6 5 -15 -2 -12 -10 -18 -10 -32
1 -17 12 -17 12 -2 -4z"/>
<path d="M5370 9030 c0 -5 5 -10 11 -10 5 0 7 5 4 10 -3 6 -8 10 -11 10 -2 0
-4 -4 -4 -10z"/>
<path d="M5420 9030 c0 -5 5 -10 10 -10 6 0 10 5 10 10 0 6 -4 10 -10 10 -5 0
-10 -4 -10 -10z"/>
<path d="M2712 9018 c-13 -13 -17 -58 -4 -58 4 0 8 10 7 23 0 30 18 34 27 5 6
-20 7 -19 5 6 -2 33 -16 43 -35 24z"/>
<path d="M2910 9015 c0 -8 7 -15 16 -15 14 0 14 3 4 15 -7 8 -14 15 -16 15 -2
0 -4 -7 -4 -15z"/>
<path d="M3835 8970 c3 -5 8 -10 11 -10 2 0 4 5 4 10 0 6 -5 10 -11 10 -5 0
-7 -4 -4 -10z"/>
<path d="M6600 8960 c0 -5 5 -10 10 -10 6 0 10 5 10 10 0 6 -4 10 -10 10 -5 0
-10 -4 -10 -10z"/>
<path d="M2700 8940 c0 -5 5 -10 11 -10 5 0 7 5 4 10 -3 6 -8 10 -11 10 -2 0
-4 -4 -4 -10z"/>
<path d="M3810 8940 c-21 -7 -20 -8 12 -7 21 1 38 5 38 10 0 9 -17 8 -50 -3z"/>
<path d="M6581 8914 c0 -11 3 -14 6 -6 3 7 2 16 -1 19 -3 4 -6 -2 -5 -13z"/>
<path d="M6631 8914 c0 -11 3 -14 6 -6 3 7 2 16 -1 19 -3 4 -6 -2 -5 -13z"/>
<path d="M6766 8825 c-3 -8 -1 -15 4 -15 6 0 10 7 10 15 0 8 -2 15 -4 15 -2 0
-6 -7 -10 -15z"/>
<path d="M6370 8804 c0 -8 5 -12 10 -9 6 4 8 11 5 16 -9 14 -15 11 -15 -7z"/>
<path d="M2433 8518 c-2 -5 62 -8 143 -8 81 0 145 2 142 5 -8 9 -279 11 -285
3z"/>
<path d="M2880 8526 c0 -2 9 -6 20 -9 11 -3 18 -1 14 4 -5 9 -34 13 -34 5z"/>
<path d="M2737 8463 c-6 -9 -10 -48 -8 -80 1 -29 21 -30 21 -2 0 15 5 19 16
15 8 -3 12 -2 9 4 -3 5 -8 20 -10 32 -5 26 -21 43 -28 31z"/>
<path d="M2676 8435 c-3 -8 -1 -15 4 -15 6 0 10 7 10 15 0 8 -2 15 -4 15 -2 0
-6 -7 -10 -15z"/>
<path d="M2413 8395 c0 -27 2 -38 4 -22 2 15 2 37 0 50 -2 12 -4 0 -4 -28z"/>
<path d="M2635 8420 c-3 -6 1 -7 9 -4 18 7 21 14 7 14 -6 0 -13 -4 -16 -10z"/>
<path d="M2792 8410 c0 -14 2 -19 5 -12 2 6 2 18 0 25 -3 6 -5 1 -5 -13z"/>
<path d="M2553 8410 c4 -17 47 -27 47 -11 0 6 -7 8 -16 4 -9 -3 -20 0 -26 8
-8 12 -9 11 -5 -1z"/>
<path d="M2478 8363 c7 -3 16 -2 19 1 4 3 -2 6 -13 5 -11 0 -14 -3 -6 -6z"/>
<path d="M1620 8295 l-155 -53 163 -1 162 -1 0 55 c0 30 -3 55 -7 54 -5 0 -78
-25 -163 -54z"/>
<path d="M2420 8325 c12 -15 30 -12 30 6 0 5 -10 9 -21 9 -18 0 -19 -2 -9 -15z"/>
<path d="M2700 8320 c0 -5 5 -10 10 -10 6 0 10 5 10 10 0 6 -4 10 -10 10 -5 0
-10 -4 -10 -10z"/>
<path d="M2257 8287 c-10 -25 -9 -55 2 -61 13 -8 18 14 11 49 -5 25 -7 27 -13
12z"/>
<path d="M3798 8293 c6 -2 18 -2 25 0 6 3 1 5 -13 5 -14 0 -19 -2 -12 -5z"/>
<path d="M3843 8288 c-2 -5 146 -7 329 -6 331 2 296 6 -110 10 -118 2 -216 0
-219 -4z"/>
<path d="M2406 8275 c4 -8 11 -15 16 -15 6 0 5 6 -2 15 -7 8 -14 15 -16 15 -2
0 -1 -7 2 -15z"/>
<path d="M3765 8260 c3 -5 11 -10 16 -10 6 0 7 5 4 10 -3 6 -11 10 -16 10 -6
0 -7 -4 -4 -10z"/>
<path d="M3835 8260 c-3 -5 -1 -10 4 -10 6 0 11 5 11 10 0 6 -2 10 -4 10 -3 0
-8 -4 -11 -10z"/>
<path d="M3980 8146 c-6 -16 -13 -34 -16 -40 -3 -6 3 0 14 13 19 23 20 23 30
5 17 -28 14 -3 -3 26 l-13 25 -12 -29z"/>
<path d="M4846 8144 c-3 -9 -6 -17 -6 -18 0 -1 9 -2 20 -2 11 0 20 1 20 2 0
11 -14 34 -20 34 -4 0 -11 -7 -14 -16z"/>
<path d="M5132 8108 c-12 -28 -21 -53 -19 -55 2 -2 12 15 22 37 21 47 29 49
49 13 8 -16 15 -25 16 -21 0 12 -33 78 -39 78 -3 0 -16 -24 -29 -52z"/>
<path d="M6010 8114 c-11 -26 -19 -49 -16 -51 2 -3 10 12 17 31 7 20 19 36 26
36 15 0 17 16 3 25 -6 3 -19 -15 -30 -41z"/>
<path d="M6343 8079 c0 -31 3 -39 18 -39 15 0 19 7 19 34 0 24 -5 35 -19 39
-15 4 -18 -1 -18 -34z"/>
<path d="M4890 8090 c6 -11 13 -20 16 -20 2 0 0 9 -6 20 -6 11 -13 20 -16 20
-2 0 0 -9 6 -20z"/>
<path d="M5975 8039 c-4 -6 -5 -12 -2 -15 2 -3 7 2 10 11 7 17 1 20 -8 4z"/>
<path d="M3926 8025 c-9 -26 -7 -32 5 -12 6 10 9 21 6 23 -2 3 -7 -2 -11 -11z"/>
<path d="M4050 8031 c0 -6 4 -13 10 -16 6 -3 7 1 4 9 -7 18 -14 21 -14 7z"/>
<path d="M6090 8035 c0 -5 5 -17 10 -25 5 -8 10 -10 10 -5 0 6 -5 17 -10 25
-5 8 -10 11 -10 5z"/>
<path d="M2906 8015 c-3 -8 -1 -15 4 -15 13 0 22 18 11 24 -5 3 -11 -1 -15 -9z"/>
<path d="M2970 8015 c0 -7 -8 -19 -17 -24 -10 -6 -13 -11 -6 -11 6 0 14 4 18
10 3 5 13 6 21 3 14 -5 15 -3 5 15 -14 26 -21 28 -21 7z"/>
<path d="M4786 8003 c-6 -14 -5 -15 5 -6 7 7 10 15 7 18 -3 3 -9 -2 -12 -12z"/>
<path d="M5082 7995 c-17 -37 -14 -45 4 -12 9 16 14 31 11 33 -2 2 -9 -7 -15
-21z"/>
<path d="M4936 7997 c3 -10 9 -15 12 -12 3 3 0 11 -7 18 -10 9 -11 8 -5 -6z"/>
<path d="M5957 7998 c-3 -7 -12 -30 -21 -50 -9 -21 -14 -38 -12 -38 7 0 47 92
42 97 -2 2 -6 -2 -9 -9z"/>
<path d="M4071 7995 c0 -5 6 -21 14 -35 8 -14 14 -20 14 -15 0 6 -6 21 -14 35
-8 14 -14 21 -14 15z"/>
<path d="M3902 7965 c-6 -14 -16 -25 -21 -25 -5 0 -11 -7 -15 -15 -12 -33 25
-13 39 22 17 41 14 57 -3 18z"/>
<path d="M4766 7965 c-9 -26 -7 -32 5 -12 6 10 9 21 6 23 -2 3 -7 -2 -11 -11z"/>
<path d="M5244 7971 c3 -4 10 -21 16 -36 6 -15 13 -25 16 -22 6 6 -23 67 -32
67 -3 0 -3 -4 0 -9z"/>
<path d="M1490 7955 c7 -9 10 -27 7 -45 -5 -23 -3 -28 8 -24 10 4 13 15 9 33
-10 44 -13 51 -25 51 -8 0 -8 -4 1 -15z"/>
<path d="M4950 7961 c0 -6 4 -13 10 -16 6 -3 7 1 4 9 -7 18 -14 21 -14 7z"/>
<path d="M1314 7930 c-4 -16 -13 -30 -20 -30 -7 0 -18 -9 -24 -20 -8 -16 -8
-20 4 -20 7 0 16 7 19 15 5 12 10 12 32 1 26 -14 75 -10 75 6 0 5 -8 8 -17 6
-14 -2 -17 3 -15 19 3 18 -1 22 -17 20 -11 -1 -19 3 -18 8 1 6 17 10 35 9 17
0 32 3 32 8 0 4 -18 8 -40 8 -37 0 -41 -3 -46 -30z m36 -28 c0 -13 -12 -22
-22 -16 -10 6 -1 24 13 24 5 0 9 -4 9 -8z"/>
<path d="M3772 7930 c0 -19 2 -27 5 -17 2 9 2 25 0 35 -3 9 -5 1 -5 -18z"/>
<path d="M5056 7935 c-9 -26 -7 -32 5 -12 6 10 9 21 6 23 -2 3 -7 -2 -11 -11z"/>
<path d="M6133 7935 c4 -9 7 -19 7 -21 0 -2 7 -4 15 -4 8 0 15 -6 15 -13 0 -7
7 -22 15 -33 15 -19 16 -19 13 1 -1 11 1 26 5 33 6 8 2 12 -12 12 -12 0 -21 4
-21 10 0 5 -10 14 -22 21 -18 10 -20 9 -15 -6z"/>
<path d="M1265 7931 c-7 -12 12 -24 25 -16 11 7 4 25 -10 25 -5 0 -11 -4 -15
-9z"/>
<path d="M1385 7921 c-3 -5 -1 -12 5 -16 5 -3 10 1 10 9 0 18 -6 21 -15 7z"/>
<path d="M3730 7915 c0 -8 2 -15 4 -15 2 0 6 7 10 15 3 8 1 15 -4 15 -6 0 -10
-7 -10 -15z"/>
<path d="M4965 7920 c3 -5 8 -10 11 -10 2 0 4 5 4 10 0 6 -5 10 -11 10 -5 0
-7 -4 -4 -10z"/>
<path d="M3843 7884 c0 -20 2 -22 13 -13 8 6 14 15 14 19 0 4 -6 10 -14 13 -9
4 -13 -2 -13 -19z"/>
<path d="M4984 7882 c5 -9 53 -8 63 1 3 4 -10 7 -31 7 -20 0 -35 -4 -32 -8z"/>
<path d="M1464 7848 l-19 -23 23 19 c21 18 27 26 19 26 -2 0 -12 -10 -23 -22z"/>
<path d="M1310 7686 c0 -31 6 -34 13 -6 3 11 1 23 -4 26 -5 3 -9 -6 -9 -20z"/>
<path d="M1260 7679 c0 -11 5 -17 10 -14 6 3 10 13 10 21 0 8 -4 14 -10 14 -5
0 -10 -9 -10 -21z"/>
<path d="M1370 7684 c0 -9 5 -14 12 -12 18 6 21 28 4 28 -9 0 -16 -7 -16 -16z"/>
<path d="M1412 7680 c0 -14 2 -19 5 -12 2 6 2 18 0 25 -3 6 -5 1 -5 -13z"/>
<path d="M1490 7689 c0 -5 5 -7 10 -4 6 3 10 8 10 11 0 2 -4 4 -10 4 -5 0 -10
-5 -10 -11z"/>
<path d="M2530 7669 c0 -5 5 -7 10 -4 6 3 10 8 10 11 0 2 -4 4 -10 4 -5 0 -10
-5 -10 -11z"/>
<path d="M3957 7576 c-4 -10 -1 -13 9 -9 7 3 14 9 14 14 0 14 -17 10 -23 -5z"/>
<path d="M5280 7569 c-11 -19 -10 -20 10 -9 11 6 18 15 15 21 -9 13 -13 11
-25 -12z"/>
<path d="M4011 7553 c0 -25 1 -26 9 -8 12 27 12 35 0 35 -5 0 -10 -12 -9 -27z"/>
<path d="M4070 7530 c0 -27 3 -50 8 -50 4 0 7 22 7 50 0 27 -3 50 -7 50 -5 0
-8 -22 -8 -50z"/>
<path d="M4130 7573 c19 -3 38 -10 42 -16 5 -8 8 -6 8 6 0 14 -8 17 -42 15
-41 -1 -41 -1 -8 -5z"/>
<path d="M5397 7573 c-4 -3 -7 -26 -7 -50 0 -33 4 -43 16 -43 13 0 14 3 5 14
-7 8 -11 27 -9 43 3 25 8 28 42 31 24 2 42 -2 47 -10 7 -10 9 -9 9 5 0 14 -9
17 -48 17 -27 0 -52 -3 -55 -7z"/>
<path d="M5972 7540 c0 -25 2 -37 5 -27 5 20 16 21 46 6 21 -10 21 -10 3 5
-11 9 -24 16 -28 16 -5 0 -13 10 -18 23 -7 18 -9 13 -8 -23z"/>
<path d="M5336 7555 c4 -8 7 -15 9 -15 2 0 5 7 9 15 3 9 0 15 -9 15 -9 0 -12
-6 -9 -15z"/>
<path d="M4385 7551 c-7 -12 12 -24 25 -16 11 7 4 25 -10 25 -5 0 -11 -4 -15
-9z"/>
<path d="M4643 7540 c0 -10 7 -16 13 -13 7 2 22 0 33 -7 35 -18 24 -4 -13 18
-33 19 -35 19 -33 2z"/>
<path d="M5725 7549 c-4 -6 -3 -15 3 -21 6 -6 11 -4 15 6 7 18 -9 31 -18 15z"/>
<path d="M4458 7543 c7 -3 16 -2 19 1 4 3 -2 6 -13 5 -11 0 -14 -3 -6 -6z"/>
<path d="M5785 7540 c3 -5 8 -10 11 -10 2 0 4 5 4 10 0 6 -5 10 -11 10 -5 0
-7 -4 -4 -10z"/>
<path d="M4170 7522 c0 -10 -5 -23 -12 -30 -9 -9 -8 -12 5 -12 12 0 17 8 17
30 0 17 -2 30 -5 30 -3 0 -5 -8 -5 -18z"/>
<path d="M2950 7510 c0 -5 5 -10 11 -10 5 0 7 5 4 10 -3 6 -8 10 -11 10 -2 0
-4 -4 -4 -10z"/>
<path d="M3977 7495 c-15 -14 -24 -25 -19 -25 5 0 19 11 32 25 30 32 23 32
-13 0z"/>
<path d="M2913 7503 c-7 -2 -13 -11 -13 -19 0 -10 12 -14 38 -14 41 1 81 23
61 35 -6 4 -15 2 -19 -6 -9 -14 -39 -21 -53 -12 -5 3 -3 9 4 14 15 9 2 11 -18
2z"/>
<path d="M3465 7500 c-16 -7 -17 -9 -3 -9 9 -1 20 4 23 9 7 11 7 11 -20 0z"/>
<path d="M4400 7496 c0 -8 4 -17 9 -20 5 -4 7 3 4 14 -6 23 -13 26 -13 6z"/>
<path d="M5301 7490 c-13 -11 -19 -20 -14 -20 6 0 18 9 28 20 23 25 17 25 -14
0z"/>
<path d="M5730 7490 c0 -11 4 -20 9 -20 5 0 7 9 4 20 -3 11 -7 20 -9 20 -2 0
-4 -9 -4 -20z"/>
<path d="M3333 7493 c20 -2 54 -2 75 0 20 2 3 4 -38 4 -41 0 -58 -2 -37 -4z"/>
<path d="M5485 7491 c-6 -11 9 -23 19 -14 9 9 7 23 -3 23 -6 0 -12 -4 -16 -9z"/>
<path d="M794 7478 c-3 -4 2 -8 10 -8 9 0 16 -4 16 -10 0 -6 113 -10 320 -10
207 0 320 -4 320 -10 0 -6 119 -10 336 -10 285 0 338 -2 350 -15 20 -20 34
-19 34 1 0 10 -6 14 -15 10 -8 -3 -15 0 -15 7 0 9 -76 12 -322 12 l-322 0 -12
23 c-9 19 -13 20 -17 8 -6 -14 -45 -16 -322 -16 -254 0 -317 3 -321 13 -5 15
-32 18 -40 5z"/>
<path d="M2145 7481 c-6 -11 9 -23 19 -14 9 9 7 23 -3 23 -6 0 -12 -4 -16 -9z"/>
<path d="M7920 7066 c0 -217 3 -397 8 -399 4 -2 34 -1 67 2 l60 6 0 390 0 390
-67 3 -68 3 0 -395z m118 3 c3 -422 8 -391 -70 -381 l-38 4 0 372 c0 205 3
376 7 380 4 4 28 6 53 4 l45 -3 3 -376z"/>
<path d="M790 7420 c0 -5 10 -10 23 -10 18 0 19 2 7 10 -19 13 -30 13 -30 0z"/>
<path d="M2923 7423 c-55 -4 -61 -10 -41 -43 10 -16 10 -24 -1 -41 -9 -15 -10
-24 -2 -28 7 -5 12 -106 13 -306 2 -228 6 -299 15 -303 21 -6 27 28 9 41 -15
11 -17 43 -14 335 2 208 -1 324 -7 326 -5 3 9 5 32 5 32 1 43 -3 46 -16 3 -11
5 -7 6 10 0 15 0 26 -1 25 -2 -1 -27 -3 -55 -5z"/>
<path d="M2593 7413 c4 -3 -1 -12 -11 -19 -15 -12 -11 -13 32 -14 l50 0 -22
20 c-18 17 -66 30 -49 13z"/>
<path d="M2756 7399 c-19 -19 -19 -19 35 -18 48 0 51 2 26 11 -15 5 -25 14
-21 19 10 17 -21 8 -40 -12z"/>
<path d="M4173 7353 c9 -2 25 -2 35 0 9 3 1 5 -18 5 -19 0 -27 -2 -17 -5z"/>
<path d="M4334 7295 c-8 -32 1 -55 22 -55 11 0 14 5 10 16 -3 9 -6 27 -6 40 0
32 -18 31 -26 -1z"/>
<path d="M4117 7289 c-6 -21 7 -69 18 -69 7 0 -1 79 -8 86 -2 3 -7 -5 -10 -17z"/>
<path d="M5370 7270 c0 -5 -6 -10 -14 -10 -8 0 -17 -3 -19 -7 -3 -5 15 -8 39
-8 24 0 44 3 44 8 0 4 -7 7 -16 7 -8 0 -12 5 -9 10 3 6 -1 10 -9 10 -9 0 -16
-4 -16 -10z"/>
<path d="M6010 7250 c-11 -7 -1 -10 35 -10 36 0 46 3 35 10 -8 5 -24 10 -35
10 -11 0 -27 -5 -35 -10z"/>
<path d="M4340 7150 c-9 -16 -8 -20 5 -20 8 0 15 9 15 20 0 11 -2 20 -5 20 -2
0 -9 -9 -15 -20z"/>
<path d="M2840 7116 l0 -49 21 27 c12 15 19 30 15 33 -3 4 -6 2 -6 -3 -1 -5
-7 2 -15 16 -14 24 -14 24 -15 -24z"/>
<path d="M5341 7048 c-9 -24 2 -58 19 -58 6 0 9 18 8 40 -1 44 -14 52 -27 18z"/>
<path d="M4763 6960 c0 -30 2 -43 4 -27 2 15 2 39 0 55 -2 15 -4 2 -4 -28z"/>
<path d="M6540 6930 c-10 -6 -12 -12 -5 -19 7 -7 14 -4 23 9 13 21 6 25 -18
10z"/>
<path d="M5346 6894 c-4 -9 -4 -19 -1 -22 3 -3 5 0 5 7 0 7 5 9 10 6 6 -3 10
1 10 9 0 21 -16 20 -24 0z"/>
<path d="M4763 6820 c0 -41 2 -58 4 -37 2 20 2 54 0 75 -2 20 -4 3 -4 -38z"/>
<path d="M3770 6861 c0 -25 6 -27 13 -6 4 8 2 17 -3 20 -6 4 -10 -3 -10 -14z"/>
<path d="M3833 6868 c4 -10 2 -18 -3 -18 -5 0 -9 -119 -10 -281 0 -197 -4
-286 -12 -299 -14 -22 -7 -33 15 -24 14 5 17 42 19 312 2 172 -1 311 -6 317
-5 6 -7 3 -3 -7z"/>
<path d="M6544 6755 c0 -66 1 -92 3 -57 2 34 2 88 0 120 -2 31 -3 3 -3 -63z"/>
<path d="M5530 6799 c0 -5 5 -7 10 -4 6 3 10 8 10 11 0 2 -4 4 -10 4 -5 0 -10
-5 -10 -11z"/>
<path d="M5512 6750 c-11 -18 -10 -20 15 -20 20 0 24 3 14 9 -7 5 -10 14 -7
20 4 6 3 11 -1 11 -5 0 -14 -9 -21 -20z"/>
<path d="M5344 6739 c-3 -6 -1 -16 4 -21 8 -8 11 -5 9 11 -1 24 -3 25 -13 10z"/>
<path d="M2960 6725 c0 -8 5 -15 10 -15 6 0 10 7 10 15 0 8 -4 15 -10 15 -5 0
-10 -7 -10 -15z"/>
<path d="M5415 6729 c-4 -6 -5 -12 -2 -15 2 -3 7 2 10 11 7 17 1 20 -8 4z"/>
<path d="M4760 6706 c0 -22 3 -27 11 -19 8 8 8 16 0 30 -9 16 -10 14 -11 -11z"/>
<path d="M5532 6695 c1 -14 6 -25 10 -25 4 0 8 11 8 25 0 14 -4 25 -10 25 -5
0 -9 -11 -8 -25z"/>
<path d="M4150 6685 c0 -7 -7 -18 -16 -23 -9 -5 -12 -12 -7 -15 13 -8 29 5 37
31 5 13 3 22 -3 22 -6 0 -11 -7 -11 -15z"/>
<path d="M4330 6690 c0 -5 5 -10 10 -10 6 0 10 5 10 10 0 6 -4 10 -10 10 -5 0
-10 -4 -10 -10z"/>
<path d="M4850 6686 c0 -9 7 -16 16 -16 17 0 14 22 -4 28 -7 2 -12 -3 -12 -12z"/>
<path d="M5350 6679 c0 -5 5 -7 10 -4 6 3 10 8 10 11 0 2 -4 4 -10 4 -5 0 -10
-5 -10 -11z"/>
<path d="M3970 6670 c0 -5 5 -10 10 -10 6 0 10 5 10 10 0 6 -4 10 -10 10 -5 0
-10 -4 -10 -10z"/>
<path d="M4002 6671 c4 -13 18 -16 19 -4 0 4 -5 9 -11 12 -7 2 -11 -2 -8 -8z"/>
<path d="M4183 6640 c-1 -11 2 -20 5 -20 4 0 8 9 9 20 1 11 -2 20 -5 20 -4 0
-8 -9 -9 -20z"/>
<path d="M4313 6640 c-1 -11 4 -20 10 -20 7 0 13 9 13 20 0 11 -5 20 -11 20
-6 0 -11 -9 -12 -20z"/>
<path d="M3993 6632 c-8 -5 -9 -13 -3 -22 7 -10 10 -11 10 -2 0 6 7 12 15 12
8 0 15 5 15 10 0 12 -20 13 -37 2z"/>
<path d="M4365 6630 c3 -5 8 -10 11 -10 2 0 4 5 4 10 0 6 -5 10 -11 10 -5 0
-7 -4 -4 -10z"/>
<path d="M4135 6600 c3 -5 8 -10 11 -10 2 0 4 5 4 10 0 6 -5 10 -11 10 -5 0
-7 -4 -4 -10z"/>
<path d="M4327 6604 c-6 -7 3 -44 12 -44 10 0 11 39 2 45 -5 2 -11 2 -14 -1z"/>
<path d="M6515 6584 c-17 -13 -25 -24 -19 -24 6 0 16 -10 22 -22 7 -16 11 -18
11 -7 1 9 9 20 19 25 15 7 16 13 7 30 l-11 22 -29 -24z"/>
<path d="M4100 6570 c0 -5 5 -10 11 -10 5 0 7 5 4 10 -3 6 -8 10 -11 10 -2 0
-4 -4 -4 -10z"/>
<path d="M4185 6570 c3 -5 8 -10 11 -10 2 0 4 5 4 10 0 6 -5 10 -11 10 -5 0
-7 -4 -4 -10z"/>
<path d="M5420 6540 c0 -5 5 -10 10 -10 6 0 10 5 10 10 0 6 -4 10 -10 10 -5 0
-10 -4 -10 -10z"/>
<path d="M1650 6370 c-10 -6 -11 -10 -2 -10 19 0 14 -30 -5 -30 -15 0 -15 -2
-4 -9 12 -8 12 -15 4 -33 -9 -20 -8 -24 8 -24 11 0 19 4 19 8 0 4 7 8 16 8 13
0 14 3 5 13 -6 8 -8 17 -4 21 4 4 1 11 -7 16 -12 8 -13 13 -2 30 14 23 0 28
-28 10z"/>
<path d="M1900 6370 c-12 -8 -10 -10 8 -10 13 0 20 4 17 10 -7 12 -6 12 -25 0z"/>
<path d="M1730 6340 c0 -11 2 -20 4 -20 2 0 6 9 9 20 3 11 1 20 -4 20 -5 0 -9
-9 -9 -20z"/>
<path d="M1776 6345 c4 -8 8 -15 10 -15 2 0 4 7 4 15 0 8 -4 15 -10 15 -5 0
-7 -7 -4 -15z"/>
<path d="M1830 6340 c0 -11 2 -20 4 -20 2 0 6 9 9 20 3 11 1 20 -4 20 -5 0 -9
-9 -9 -20z"/>
<path d="M1883 6325 c4 -8 1 -17 -5 -21 -7 -5 -3 -10 11 -16 19 -6 21 -11 12
-22 -8 -9 -8 -16 -2 -20 6 -4 7 -14 4 -23 -4 -10 -2 -14 7 -11 18 6 20 43 3
75 -19 37 2 58 24 26 9 -13 20 -23 26 -23 8 0 8 3 0 11 -6 6 -9 18 -6 25 4 11
-5 14 -37 14 -33 0 -41 -3 -37 -15z"/>
<path d="M1730 6269 c0 -22 4 -38 8 -35 8 5 4 76 -4 76 -2 0 -4 -18 -4 -41z"/>
<path d="M4739 6193 c2 -54 5 -93 8 -86 2 7 11 9 19 6 18 -7 18 12 -1 31 -10
10 -15 35 -15 80 0 36 -3 66 -7 66 -5 0 -6 -44 -4 -97z"/>
<path d="M1777 6260 c-3 -11 -1 -23 4 -26 5 -3 9 6 9 20 0 31 -6 34 -13 6z"/>
<path d="M3767 6260 c-3 -13 0 -20 9 -20 15 0 19 26 5 34 -5 3 -11 -3 -14 -14z"/>
<path d="M3008 6243 c7 -3 16 -2 19 1 4 3 -2 6 -13 5 -11 0 -14 -3 -6 -6z"/>
<path d="M3710 6246 c0 -2 9 -6 20 -9 11 -3 20 -1 20 4 0 5 -9 9 -20 9 -11 0
-20 -2 -20 -4z"/>
<path d="M5368 6233 c6 -2 18 -2 25 0 6 3 1 5 -13 5 -14 0 -19 -2 -12 -5z"/>
<path d="M6507 6222 c-9 -10 -17 -24 -17 -30 0 -6 -16 -12 -35 -14 l-36 -3 0
-380 0 -380 77 -5 c44 -3 83 -1 91 5 11 8 13 78 11 385 l-3 375 -47 3 c-49 3
-60 14 -32 30 9 5 15 15 13 21 -3 9 -10 6 -22 -7z m73 -427 l0 -365 -69 0 -69
0 -4 58 c-3 44 -2 562 1 655 1 14 11 17 71 17 l70 0 0 -365z"/>
<path d="M5318 6223 c7 -3 16 -2 19 1 4 3 -2 6 -13 5 -11 0 -14 -3 -6 -6z"/>
<path d="M5258 6213 c6 -2 18 -2 25 0 6 3 1 5 -13 5 -14 0 -19 -2 -12 -5z"/>
<path d="M6550 6210 c0 -5 5 -10 11 -10 5 0 7 5 4 10 -3 6 -8 10 -11 10 -2 0
-4 -4 -4 -10z"/>
<path d="M5203 6203 c9 -2 23 -2 30 0 6 3 -1 5 -18 5 -16 0 -22 -2 -12 -5z"/>
<path d="M5148 6193 c6 -2 18 -2 25 0 6 3 1 5 -13 5 -14 0 -19 -2 -12 -5z"/>
<path d="M3723 6183 c-13 -2 -23 -9 -23 -14 0 -13 13 -11 36 6 10 8 17 14 14
13 -3 0 -15 -3 -27 -5z"/>
<path d="M5050 6180 c-34 -7 -34 -7 -5 -8 17 0 44 4 60 8 27 7 27 8 5 8 -14
-1 -41 -4 -60 -8z"/>
<path d="M3032 6171 c4 -13 18 -16 19 -4 0 4 -5 9 -11 12 -7 2 -11 -2 -8 -8z"/>
<path d="M4978 6163 c6 -2 18 -2 25 0 6 3 1 5 -13 5 -14 0 -19 -2 -12 -5z"/>
<path d="M4886 6151 c-16 -3 -31 -12 -34 -18 -5 -16 -8 -16 58 7 53 19 39 25
-24 11z"/>
<path d="M2893 6078 c-14 -18 -23 -45 -16 -51 9 -9 43 27 43 45 0 21 -13 23
-27 6z"/>
<path d="M3053 5995 c0 -38 2 -53 4 -32 2 20 2 52 0 70 -2 17 -4 1 -4 -38z"/>
<path d="M5620 6010 c0 -5 4 -10 9 -10 6 0 13 5 16 10 3 6 -1 10 -9 10 -9 0
-16 -4 -16 -10z"/>
<path d="M5787 6000 c-5 -18 0 -20 41 -19 26 1 39 3 30 6 -10 2 -18 11 -18 19
0 23 -47 17 -53 -6z"/>
<path d="M2880 5986 c0 -14 29 -31 38 -22 2 3 2 12 -1 21 -8 19 -37 20 -37 1z"/>
<path d="M5660 5979 c0 -5 5 -7 10 -4 6 3 10 8 10 11 0 2 -4 4 -10 4 -5 0 -10
-5 -10 -11z"/>
<path d="M6230 5983 c0 -5 7 -17 15 -27 14 -19 15 -19 15 7 0 17 -5 27 -15 27
-8 0 -15 -3 -15 -7z"/>
<path d="M1539 5921 c8 -5 11 -16 6 -30 -4 -15 -2 -21 9 -21 8 0 18 5 21 10 3
6 1 10 -5 10 -7 0 -10 6 -7 14 3 8 -1 17 -9 20 -23 9 -31 7 -15 -3z"/>
<path d="M1605 5920 c-3 -5 1 -10 10 -10 9 0 13 5 10 10 -3 6 -8 10 -10 10 -2
0 -7 -4 -10 -10z"/>
<path d="M1709 5913 c-12 -16 -12 -17 1 -7 8 7 24 14 35 17 19 4 19 5 -1 6
-12 0 -28 -7 -35 -16z"/>
<path d="M1855 5919 c-4 -6 -4 -13 -1 -16 3 -4 6 -1 6 6 0 9 9 12 25 9 13 -3
22 -1 19 3 -7 13 -42 11 -49 -2z"/>
<path d="M1961 5921 c-11 -7 -11 -9 0 -13 8 -3 22 -3 32 0 15 4 16 7 5 13 -16
11 -20 11 -37 0z"/>
<path d="M2051 5914 c0 -11 3 -14 6 -6 3 7 2 16 -1 19 -3 4 -6 -2 -5 -13z"/>
<path d="M5380 5899 c0 -5 5 -7 10 -4 6 3 10 8 10 11 0 2 -4 4 -10 4 -5 0 -10
-5 -10 -11z"/>
<path d="M5460 5895 c0 -8 5 -15 10 -15 6 0 10 7 10 15 0 8 -4 15 -10 15 -5 0
-10 -7 -10 -15z"/>
<path d="M1912 5870 c0 -19 2 -27 5 -17 2 9 2 25 0 35 -3 9 -5 1 -5 -18z"/>
<path d="M1700 5871 c0 -25 6 -27 13 -6 4 8 2 17 -3 20 -6 4 -10 -3 -10 -14z"/>
<path d="M1756 5867 c3 -10 9 -15 12 -12 3 3 0 11 -7 18 -10 9 -11 8 -5 -6z"/>
<path d="M2055 5870 c27 -12 43 -12 25 0 -8 5 -22 9 -30 9 -10 0 -8 -3 5 -9z"/>
<path d="M4220 5880 c-8 -27 -8 -50 -1 -50 15 0 19 13 10 35 -4 11 -8 18 -9
15z"/>
<path d="M4256 5865 c-3 -8 -1 -15 4 -15 5 0 12 -9 15 -20 4 -11 11 -18 16
-14 6 4 6 10 0 18 -6 7 -9 15 -6 18 3 3 -1 10 -9 17 -11 9 -15 8 -20 -4z"/>
<path d="M6247 5873 c-3 -5 -1 -17 4 -28 7 -17 8 -17 8 8 1 27 -4 34 -12 20z"/>
<path d="M1995 5853 c-18 -14 -18 -15 -2 -9 10 3 23 6 28 6 5 0 9 5 9 10 0 14
-12 12 -35 -7z"/>
<path d="M5651 5854 c0 -11 3 -14 6 -6 3 7 2 16 -1 19 -3 4 -6 -2 -5 -13z"/>
<path d="M4010 5850 c0 -5 5 -10 11 -10 5 0 7 5 4 10 -3 6 -8 10 -11 10 -2 0
-4 -4 -4 -10z"/>
<path d="M4115 5840 c-3 -5 -1 -10 4 -10 6 0 11 5 11 10 0 6 -2 10 -4 10 -3 0
-8 -4 -11 -10z"/>
<path d="M4147 5843 c-11 -10 -8 -43 3 -43 6 0 10 11 10 25 0 26 -2 29 -13 18z"/>
<path d="M2020 5820 c0 -5 5 -10 10 -10 6 0 10 5 10 10 0 6 -4 10 -10 10 -5 0
-10 -4 -10 -10z"/>
<path d="M2070 5820 c0 -5 5 -10 10 -10 6 0 10 5 10 10 0 6 -4 10 -10 10 -5 0
-10 -4 -10 -10z"/>
<path d="M6246 5782 c-2 -4 -1 -14 5 -22 7 -12 9 -10 9 8 0 23 -5 28 -14 14z"/>
<path d="M4913 5763 c4 -3 3 -11 -2 -17 -7 -8 2 -12 29 -12 32 -1 38 2 37 17
-1 15 -9 19 -36 19 -19 0 -31 -3 -28 -7z"/>
<path d="M4000 5752 c-8 -4 -16 -15 -18 -24 -2 -13 5 -16 29 -16 23 1 27 3 15
10 -8 5 -13 15 -10 23 7 16 6 17 -16 7z"/>
<path d="M4260 5705 c0 -8 9 -15 20 -15 11 0 20 2 20 5 0 2 -9 9 -20 15 -16 9
-20 8 -20 -5z"/>
<path d="M6252 5685 c0 -16 2 -22 5 -12 2 9 2 23 0 30 -3 6 -5 -1 -5 -18z"/>
<path d="M3812 5673 c4 -21 33 -25 33 -3 0 8 -8 16 -18 18 -14 3 -18 -1 -15
-15z"/>
<path d="M4018 5683 c7 -3 16 -2 19 1 4 3 -2 6 -13 5 -11 0 -14 -3 -6 -6z"/>
<path d="M3073 5625 c0 -27 2 -38 4 -22 2 15 2 37 0 50 -2 12 -4 0 -4 -28z"/>
<path d="M4623 5618 c-12 -27 1 -73 18 -63 6 4 8 13 5 20 -3 8 3 16 12 18 15
4 15 5 -1 6 -10 0 -16 5 -13 9 2 4 1 13 -3 20 -5 9 -11 6 -18 -10z"/>
<path d="M6245 5610 c-3 -5 -1 -18 4 -27 9 -16 10 -14 11 10 0 28 -5 34 -15
17z"/>
<path d="M6252 5510 c0 -14 2 -19 5 -12 2 6 2 18 0 25 -3 6 -5 1 -5 -13z"/>
<path d="M4290 5489 c0 -5 7 -9 16 -9 8 0 12 -4 9 -10 -4 -6 5 -10 20 -10 15
0 24 4 20 10 -4 6 5 10 20 10 14 0 24 4 20 9 -7 12 -105 12 -105 0z"/>
<path d="M3928 5463 c7 -3 16 -2 19 1 4 3 -2 6 -13 5 -11 0 -14 -3 -6 -6z"/>
<path d="M6241 5433 c-15 -16 -10 -26 12 -21 9 2 12 9 8 19 -5 15 -8 15 -20 2z"/>
<path d="M6370 5411 c0 -6 4 -12 8 -15 5 -3 9 1 9 9 0 8 -4 15 -9 15 -4 0 -8
-4 -8 -9z"/>
<path d="M4058 5393 c7 -3 16 -2 19 1 4 3 -2 6 -13 5 -11 0 -14 -3 -6 -6z"/>
<path d="M6490 5391 c0 -5 5 -13 10 -16 6 -3 10 -2 10 4 0 5 -4 13 -10 16 -5
3 -10 2 -10 -4z"/>
<path d="M6543 5381 c-16 -4 -20 -10 -14 -20 5 -8 11 -9 15 -3 3 5 109 10 263
11 142 1 259 4 262 7 2 2 -94 4 -215 5 -120 1 -235 2 -254 3 -19 1 -45 0 -57
-3z"/>
<path d="M2904 5335 c3 -8 0 -20 -7 -27 -9 -10 -12 -99 -12 -343 l0 -330 -304
-3 c-206 -1 -308 1 -317 8 -9 9 -15 6 -24 -9 -10 -21 -18 -21 -314 -21 -288 0
-396 -5 -396 -19 0 -3 18 -7 40 -9 23 -1 40 2 40 8 0 7 103 10 325 8 253 -2
326 0 330 10 3 9 77 12 320 12 l315 0 0 330 c0 286 2 330 15 338 13 7 14 14 6
35 -6 15 -13 27 -17 27 -3 0 -4 -7 0 -15z"/>
<path d="M5011 5323 c0 -12 -7 -24 -13 -26 -8 -3 -5 -6 5 -6 27 -1 17 -34 -13
-42 -23 -6 -22 -7 8 -8 24 -1 35 -7 43 -23 l10 -23 -5 23 c-3 17 1 26 17 32
l22 9 -22 0 c-22 1 -27 10 -24 39 1 6 -2 12 -8 12 -5 0 -12 8 -14 18 -4 13 -5
12 -6 -5z"/>
<path d="M5345 5320 c-11 -5 -14 -9 -7 -9 29 -2 6 -36 -28 -42 l-35 -6 33 -2
c25 -1 32 -5 32 -21 0 -11 -9 -25 -20 -32 -11 -7 -20 -16 -20 -20 0 -17 40 18
51 44 8 20 19 28 38 29 24 2 24 2 3 6 -28 6 -39 28 -22 48 14 17 6 18 -25 5z"/>
<path d="M2965 5310 c-3 -5 -1 -10 4 -10 6 0 11 5 11 10 0 6 -2 10 -4 10 -3 0
-8 -4 -11 -10z"/>
<path d="M6187 5286 c-3 -19 -3 -44 0 -56 5 -19 7 -20 29 -5 13 8 24 13 24 10
0 -3 14 1 30 10 17 9 30 18 30 20 0 4 -95 55 -103 55 -3 0 -7 -15 -10 -34z"/>
<path d="M5573 5259 c-6 -6 -33 -21 -59 -35 -27 -13 -42 -24 -33 -24 15 0 109
55 109 65 0 8 -5 6 -17 -6z"/>
<path d="M7294 5208 c-6 -18 -14 -42 -18 -53 -4 -11 2 -3 14 18 12 21 20 45
18 53 -2 9 -8 0 -14 -18z"/>
<path d="M7393 5201 c12 -22 23 -38 25 -36 5 5 -26 63 -37 69 -5 4 0 -12 12
-33z"/>
<path d="M6350 4966 c0 -149 2 -175 16 -180 9 -3 17 -6 19 -6 6 0 -1 29 -8 36
-4 4 -7 79 -7 166 0 99 -4 158 -10 158 -6 0 -10 -65 -10 -174z"/>
<path d="M7400 5025 c-7 -9 -19 -14 -26 -11 -17 7 -28 -10 -13 -20 6 -3 23 5
37 20 15 14 24 26 20 26 -3 0 -11 -7 -18 -15z"/>
<path d="M7290 5015 c-7 -9 -10 -18 -7 -21 3 -3 10 4 17 15 13 25 8 27 -10 6z"/>
<path d="M5180 4989 c-12 -9 -12 -10 4 -5 10 4 25 1 32 -5 9 -7 14 -8 14 -1 0
5 -7 13 -16 16 -19 7 -16 8 -34 -5z"/>
<path d="M5336 4992 c-2 -4 4 -8 14 -8 10 0 16 4 14 8 -3 4 -9 8 -14 8 -5 0
-11 -4 -14 -8z"/>
<path d="M5425 4990 c-3 -6 1 -13 10 -16 19 -8 30 0 20 15 -8 14 -22 14 -30 1z"/>
<path d="M5007 4979 c9 -9 9 -16 2 -25 -14 -17 6 -28 28 -15 16 9 16 10 2 11
-9 0 -16 7 -15 16 0 9 -6 19 -14 22 -12 4 -13 2 -3 -9z"/>
<path d="M5070 4979 c0 -5 5 -7 10 -4 6 3 10 8 10 11 0 2 -4 4 -10 4 -5 0 -10
-5 -10 -11z"/>
<path d="M5510 4980 c0 -5 5 -10 10 -10 6 0 10 5 10 10 0 6 -4 10 -10 10 -5 0
-10 -4 -10 -10z"/>
<path d="M5216 4951 c-4 -7 -5 -15 -2 -18 9 -9 19 4 14 18 -4 11 -6 11 -12 0z"/>
<path d="M5310 4935 c1 -26 2 -28 11 -12 8 14 8 22 0 30 -8 8 -11 3 -11 -18z"/>
<path d="M5367 4929 c4 -13 8 -18 11 -10 2 7 -1 18 -6 23 -8 8 -9 4 -5 -13z"/>
<path d="M5470 4930 l-35 -19 28 -1 c15 0 27 5 27 10 0 6 7 10 15 10 8 0 15 5
15 10 0 14 -10 12 -50 -10z"/>
<path d="M7305 4935 c26 -9 105 -12 105 -4 0 5 -26 9 -57 8 -32 0 -53 -2 -48
-4z"/>
<path d="M7401 4863 c-1 -9 -20 -13 -53 -14 l-53 -2 55 -7 c30 -4 57 -6 58 -4
2 1 2 11 -1 21 -3 10 -5 12 -6 6z"/>
<path d="M6526 4842 c-12 -11 -5 -20 19 -24 16 -3 25 -1 25 7 0 13 -35 27 -44
17z"/>
<path d="M3400 4820 c0 -5 5 -10 10 -10 6 0 10 5 10 10 0 6 -4 10 -10 10 -5 0
-10 -4 -10 -10z"/>
<path d="M6491 4817 c-6 -8 -8 -17 -4 -20 3 -4 -10 -7 -30 -7 l-37 0 0 -312
c-1 -788 1 -1181 6 -1190 3 -4 90 -8 192 -7 167 2 187 0 190 -14 2 -10 10 -17
18 -17 8 0 14 -6 14 -14 0 -8 4 -18 10 -21 5 -3 7 0 4 9 -6 16 29 32 46 21 6
-3 19 -3 30 0 18 6 20 15 20 91 l0 84 -175 0 -175 0 -2 28 c0 15 -1 44 0 65 1
20 -3 37 -9 37 -6 0 -9 -28 -7 -72 l3 -73 172 -3 171 -2 4 -65 c3 -71 0 -75
-57 -75 -24 0 -38 6 -45 20 -10 19 -21 20 -200 20 -188 0 -190 0 -195 23 -3
12 -4 342 -3 732 l3 710 73 3 72 3 0 -606 c0 -397 3 -605 10 -605 16 0 14
1217 -2 1226 -7 4 -29 7 -51 5 -35 -2 -38 0 -32 19 7 23 2 26 -14 7z"/>
<path d="M7323 4783 c15 -2 37 -2 50 0 12 2 0 4 -28 4 -27 0 -38 -2 -22 -4z"/>
<path d="M788 4693 c7 -3 16 -2 19 1 4 3 -2 6 -13 5 -11 0 -14 -3 -6 -6z"/>
<path d="M7307 4683 c18 -2 50 -2 70 0 21 2 7 4 -32 4 -38 0 -55 -2 -38 -4z"/>
<path d="M855 4640 c3 -5 12 -7 20 -3 21 7 19 13 -6 13 -11 0 -18 -4 -14 -10z"/>
<path d="M865 4601 c-3 -5 2 -11 10 -15 8 -3 17 -1 20 3 3 5 -2 11 -10 15 -8
3 -17 1 -20 -3z"/>
<path d="M933 4593 c9 -2 25 -2 35 0 9 3 1 5 -18 5 -19 0 -27 -2 -17 -5z"/>
<path d="M1023 4593 c9 -2 25 -2 35 0 9 3 1 5 -18 5 -19 0 -27 -2 -17 -5z"/>
<path d="M1113 4593 c9 -2 23 -2 30 0 6 3 -1 5 -18 5 -16 0 -22 -2 -12 -5z"/>
<path d="M1193 4593 c9 -2 25 -2 35 0 9 3 1 5 -18 5 -19 0 -27 -2 -17 -5z"/>
<path d="M1283 4593 c9 -2 25 -2 35 0 9 3 1 5 -18 5 -19 0 -27 -2 -17 -5z"/>
<path d="M1373 4593 c9 -2 25 -2 35 0 9 3 1 5 -18 5 -19 0 -27 -2 -17 -5z"/>
<path d="M1450 4590 c0 -5 9 -9 20 -7 31 5 36 17 7 17 -15 0 -27 -4 -27 -10z"/>
<path d="M1580 4560 c0 -5 7 -10 16 -10 8 0 12 5 9 10 -3 6 -10 10 -16 10 -5
0 -9 -4 -9 -10z"/>
<path d="M4260 4445 c0 -8 2 -15 4 -15 2 0 6 7 10 15 3 8 1 15 -4 15 -6 0 -10
-7 -10 -15z"/>
<path d="M5101 4446 c-8 -9 -11 -19 -7 -23 9 -9 29 13 24 27 -2 8 -8 7 -17 -4z"/>
<path d="M4276 4331 c4 -14 1 -26 -6 -31 -7 -4 -10 -14 -8 -21 4 -9 10 -5 18
12 9 21 9 31 1 45 -11 17 -11 16 -5 -5z"/>
<path d="M5050 4270 c0 -5 5 -10 10 -10 6 0 10 5 10 10 0 6 -4 10 -10 10 -5 0
-10 -4 -10 -10z"/>
<path d="M4903 4252 c-12 -12 -12 -16 -1 -23 21 -14 44 -10 62 10 16 18 16 19
-14 23 -20 3 -37 -1 -47 -10z"/>
<path d="M5640 4156 c0 -8 -6 -16 -12 -18 -7 -3 8 -5 32 -5 25 -1 39 1 33 4
-7 2 -13 11 -13 19 0 8 -9 14 -20 14 -11 0 -20 -6 -20 -14z"/>
<path d="M5807 4150 c-16 -20 -16 -20 31 -19 35 0 42 3 27 9 -11 5 -15 9 -10
9 10 1 -14 21 -25 21 -3 0 -13 -9 -23 -20z"/>
<path d="M5830 4075 c0 -8 4 -15 10 -15 5 0 7 7 4 15 -4 8 -8 15 -10 15 -2 0
-4 -7 -4 -15z"/>
<path d="M5920 3945 c0 -14 4 -25 9 -25 4 0 6 11 3 25 -2 14 -6 25 -8 25 -2 0
-4 -11 -4 -25z"/>
<path d="M6336 3557 c3 -10 9 -15 12 -12 3 3 0 11 -7 18 -10 9 -11 8 -5 -6z"/>
<path d="M6337 3511 c-4 -17 -3 -21 5 -13 5 5 8 16 6 23 -3 8 -7 3 -11 -10z"/>
<path d="M6766 3235 c4 -8 8 -15 10 -15 2 0 4 7 4 15 0 8 -4 15 -10 15 -5 0
-7 -7 -4 -15z"/>
<path d="M2783 3180 c0 -25 2 -35 4 -22 2 12 2 32 0 45 -2 12 -4 2 -4 -23z"/>
<path d="M2867 3172 c-6 -39 -15 -61 -34 -78 -29 -27 -20 -32 14 -9 22 15 39
83 31 121 -2 11 -7 -5 -11 -34z"/>
<path d="M3279 3187 c-19 -27 -20 -29 -3 -16 10 10 26 19 36 20 13 3 14 6 3
16 -11 10 -18 7 -36 -20z"/>
<path d="M3547 3185 c-16 -20 -21 -32 -12 -29 8 4 15 9 15 14 0 4 9 11 20 16
12 5 17 14 12 21 -5 8 -16 1 -35 -22z"/>
<path d="M3770 3197 c-14 -12 -37 -30 -50 -40 -25 -17 -25 -17 -1 -6 18 9 25
8 32 -2 7 -11 9 -10 9 4 0 9 9 26 21 38 28 28 20 32 -11 6z"/>
<path d="M4219 3188 c-20 -29 -20 -31 -3 -15 11 9 33 17 47 17 39 0 35 -34 -8
-77 -20 -20 -33 -38 -29 -42 9 -9 67 61 81 98 11 30 10 31 -16 31 -15 0 -32 5
-38 11 -7 7 -17 1 -34 -23z"/>
<path d="M6895 3214 c-6 -2 -9 -80 -7 -212 l3 -208 -26 -14 c-21 -11 -23 -15
-10 -22 11 -7 15 -29 17 -91 l2 -82 3 75 c3 60 7 78 23 92 12 10 16 19 10 23
-15 9 -13 418 2 433 12 12 3 15 -17 6z"/>
<path d="M2920 3150 c0 -54 2 -62 24 -71 16 -8 38 -8 63 -3 l38 9 -52 3 c-81
5 -85 52 -6 71 25 7 43 14 40 17 -3 3 -22 1 -43 -5 -44 -12 -57 -7 -49 20 4
11 2 19 -4 19 -7 0 -11 -24 -11 -60z"/>
<path d="M3095 3200 c3 -5 11 -10 16 -10 6 0 7 5 4 10 -3 6 -11 10 -16 10 -6
0 -7 -4 -4 -10z"/>
<path d="M4047 3199 c7 -7 15 -10 18 -7 3 3 -2 9 -12 12 -14 6 -15 5 -6 -5z"/>
<path d="M3348 3192 c8 -5 10 -16 6 -28 -9 -24 -1 -16 15 14 11 20 9 22 -11
22 -16 0 -19 -3 -10 -8z"/>
<path d="M3619 3195 c-1 -6 -2 -14 -4 -20 -1 -5 -3 -16 -3 -22 -1 -7 -9 -13
-18 -13 -8 0 -13 -4 -9 -9 3 -5 -9 -21 -27 -35 -18 -14 -28 -26 -22 -26 6 0
23 9 37 20 14 11 29 20 34 20 13 0 33 74 22 85 -6 5 -9 5 -10 0z"/>
<path d="M3893 3193 c15 -2 39 -2 55 0 15 2 2 4 -28 4 -30 0 -43 -2 -27 -4z"/>
<path d="M3441 3156 c-9 -10 -9 -16 -1 -21 17 -10 37 12 24 25 -8 8 -15 6 -23
-4z"/>
<path d="M3190 3146 c-6 -8 -31 -23 -56 -32 -24 -9 -44 -20 -44 -25 0 -12 97
31 116 52 9 10 12 19 7 19 -6 0 -16 -7 -23 -14z"/>
<path d="M4095 3127 c-33 -18 -62 -33 -64 -34 -2 -2 -2 -6 1 -9 8 -7 101 40
117 60 17 20 17 20 -54 -17z"/>
<path d="M3304 3099 c-22 -24 -24 -29 -8 -21 24 13 49 40 42 47 -2 3 -18 -9
-34 -26z"/>
<path d="M3850 3100 c17 -11 130 -10 130 2 0 4 -33 8 -72 8 -51 0 -69 -3 -58
-10z"/>
<path d="M6410 2870 c0 -5 5 -10 11 -10 5 0 7 5 4 10 -3 6 -8 10 -11 10 -2 0
-4 -4 -4 -10z"/>
<path d="M6455 2870 c-3 -5 1 -10 9 -10 9 0 16 5 16 10 0 6 -4 10 -9 10 -6 0
-13 -4 -16 -10z"/>
<path d="M6515 2870 c-3 -5 -1 -10 4 -10 6 0 11 5 11 10 0 6 -2 10 -4 10 -3 0
-8 -4 -11 -10z"/>
<path d="M6410 2799 c0 -5 5 -7 10 -4 6 3 10 8 10 11 0 2 -4 4 -10 4 -5 0 -10
-5 -10 -11z"/>
<path d="M6458 2803 c6 -2 18 -2 25 0 6 3 1 5 -13 5 -14 0 -19 -2 -12 -5z"/>
<path d="M3657 2783 c-14 -13 -6 -20 18 -15 14 2 22 8 19 13 -6 11 -28 12 -37
2z"/>
<path d="M3236 2766 c3 -9 11 -16 16 -16 13 0 5 23 -10 28 -7 2 -10 -2 -6 -12z"/>
<path d="M3300 2770 c0 -5 5 -10 10 -10 6 0 10 5 10 10 0 6 -4 10 -10 10 -5 0
-10 -4 -10 -10z"/>
<path d="M3513 2773 c9 -2 23 -2 30 0 6 3 -1 5 -18 5 -16 0 -22 -2 -12 -5z"/>
<path d="M3750 2770 c-11 -7 -6 -10 20 -10 26 0 31 3 20 10 -8 5 -17 10 -20
10 -3 0 -12 -5 -20 -10z"/>
<path d="M3840 2765 c0 -8 8 -11 20 -8 11 3 20 7 20 8 0 1 -9 5 -20 8 -12 3
-20 0 -20 -8z"/>
<path d="M3415 2760 c-3 -5 -2 -10 4 -10 5 0 12 -8 14 -17 3 -11 5 -7 6 10 1
27 -12 36 -24 17z"/>
<path d="M3500 2739 c0 -5 8 -9 19 -9 10 0 24 -6 30 -14 10 -12 8 -19 -8 -35
-12 -12 -17 -21 -13 -21 5 0 17 9 26 19 14 15 15 24 7 39 -10 20 -61 37 -61
21z"/>
<path d="M3640 2741 c0 -5 12 -11 27 -13 18 -2 29 -10 31 -22 5 -22 -16 -38
-38 -30 -12 4 -13 3 -2 -8 9 -9 17 -10 30 -2 19 12 28 52 15 64 -14 12 -63 21
-63 11z"/>
<path d="M6465 2740 c3 -5 10 -10 16 -10 5 0 9 5 9 10 0 6 -7 10 -16 10 -8 0
-12 -4 -9 -10z"/>
<path d="M3230 2730 c0 -5 9 -10 19 -10 11 0 23 5 26 10 4 6 -5 10 -19 10 -14
0 -26 -4 -26 -10z"/>
<path d="M3803 2722 c-18 -9 -33 -20 -33 -24 0 -8 41 2 57 14 7 5 22 7 35 3
22 -6 22 -6 4 9 -24 19 -22 19 -63 -2z"/>
<path d="M3431 2694 c0 -11 3 -14 6 -6 3 7 2 16 -1 19 -3 4 -6 -2 -5 -13z"/>
<path d="M6435 2680 c-3 -5 -1 -10 4 -10 6 0 11 5 11 10 0 6 -2 10 -4 10 -3 0
-8 -4 -11 -10z"/>
<path d="M3810 2670 c0 -5 9 -10 21 -10 11 0 17 5 14 10 -3 6 -13 10 -21 10
-8 0 -14 -4 -14 -10z"/>
<path d="M3860 2670 c0 -5 5 -10 10 -10 6 0 10 5 10 10 0 6 -4 10 -10 10 -5 0
-10 -4 -10 -10z"/>
<path d="M6874 2485 c0 -55 1 -76 3 -47 2 29 2 74 0 100 -2 26 -3 2 -3 -53z"/>
<path d="M6630 2384 c0 -8 5 -12 10 -9 6 4 8 11 5 16 -9 14 -15 11 -15 -7z"/>
<path d="M6871 2364 c0 -12 -8 -27 -16 -34 -8 -7 -15 -19 -15 -26 0 -8 -7 -14
-15 -14 -8 0 -15 -9 -15 -20 0 -19 -7 -20 -195 -20 l-195 0 0 -245 c0 -226 -1
-245 -17 -246 -10 0 -237 0 -505 0 -429 1 -488 -1 -488 -14 0 -8 -9 -15 -19
-15 -11 0 -23 -4 -26 -10 -4 -6 4 -9 17 -7 19 2 23 -3 24 -28 3 -72 -28 -65
304 -65 l300 0 2 -452 3 -453 468 -3 467 -2 0 440 0 440 -177 2 -177 3 2 254
c1 196 4 256 14 263 7 4 86 8 176 8 l162 0 0 79 c0 89 -4 96 -62 92 -40 -2
-52 14 -20 27 14 5 16 14 11 37 -5 21 -7 24 -8 9z m40 -94 c17 0 19 -8 19 -70
l0 -70 -175 0 -175 0 0 -275 0 -275 23 0 c12 -1 88 -1 169 0 132 1 148 -1 156
-17 11 -21 9 -814 -2 -832 -6 -8 -118 -10 -449 -5 -243 3 -444 8 -447 11 -3 2
-5 205 -5 451 l0 447 -302 3 -303 2 0 50 0 50 505 0 505 0 1 223 c1 122 2 233
2 247 l2 25 190 3 c144 2 192 5 200 16 13 16 36 26 53 20 8 -2 22 -4 33 -4z"/>
<path d="M6905 2320 c3 -5 8 -10 11 -10 2 0 4 5 4 10 0 6 -5 10 -11 10 -5 0
-7 -4 -4 -10z"/>
<path d="M6765 2301 c-3 -5 -2 -12 3 -15 5 -3 9 1 9 9 0 17 -3 19 -12 6z"/>
<path d="M2266 2098 c4 -7 14 -21 23 -31 9 -11 16 -26 16 -35 0 -34 30 -22 53
20 12 24 22 46 22 51 0 4 -27 7 -61 7 -45 0 -58 -3 -53 -12z"/>
<path d="M4577 2072 c8 -20 21 -46 29 -56 14 -20 14 -20 29 0 8 10 12 25 10
32 -2 6 0 12 6 12 6 0 7 5 4 10 -3 6 -2 10 3 10 6 0 12 6 15 14 4 11 -7 14
-53 15 l-58 1 15 -38z"/>
<path d="M822 1815 c-11 -13 -1 -15 80 -14 51 1 85 3 76 6 -10 2 -18 9 -18 14
0 16 -123 10 -138 -6z"/>
<path d="M6076 1815 c4 -8 15 -15 26 -15 10 0 17 4 14 9 -4 5 0 12 6 14 7 3
-1 6 -19 6 -25 1 -31 -2 -27 -14z"/>
<path d="M6253 1815 c0 -8 8 -15 18 -15 9 0 19 7 23 15 4 11 -1 15 -18 15 -13
0 -23 -6 -23 -15z"/>
<path d="M1525 1800 c-3 -5 -1 -10 4 -10 6 0 11 5 11 10 0 6 -2 10 -4 10 -3 0
-8 -4 -11 -10z"/>
<path d="M3880 1705 c0 -7 122 -9 352 -7 342 3 354 2 369 -17 9 -11 20 -17 24
-13 3 4 118 9 253 12 l247 6 -242 2 c-150 1 -243 6 -243 12 0 6 -141 11 -380
12 -248 2 -380 0 -380 -7z"/>
<path d="M3130 1693 c0 -5 155 -8 345 -8 190 0 345 3 345 8 0 4 -155 7 -345 7
-190 0 -345 -3 -345 -7z"/>
<path d="M5134 1679 c-3 -6 31 -9 90 -8 53 1 96 4 96 8 0 11 -179 10 -186 0z"/>
<path d="M5340 1684 c0 -8 32 -33 43 -34 4 0 2 9 -5 20 -12 19 -38 28 -38 14z"/>
<path d="M7920 1190 l0 -400 65 0 65 0 0 400 0 400 -65 0 -65 0 0 -400z m118
-2 l-3 -383 -50 0 -50 0 -3 383 -2 382 55 0 55 0 -2 -382z"/>
<path d="M3510 1530 c0 -5 5 -10 10 -10 6 0 10 5 10 10 0 6 -4 10 -10 10 -5 0
-10 -4 -10 -10z"/>
<path d="M3395 1145 c23 -8 85 -10 85 -3 0 4 -21 8 -47 7 -27 0 -43 -2 -38 -4z"/>
<path d="M3568 1143 c12 -2 32 -2 45 0 12 2 2 4 -23 4 -25 0 -35 -2 -22 -4z"/>
<path d="M3061 1124 c0 -11 3 -14 6 -6 3 7 2 16 -1 19 -3 4 -6 -2 -5 -13z"/>
<path d="M3130 1131 c0 -6 4 -13 10 -16 6 -3 7 1 4 9 -7 18 -14 21 -14 7z"/>
<path d="M3150 1095 c0 -5 5 -17 10 -25 5 -8 10 -10 10 -5 0 6 -5 17 -10 25
-5 8 -10 11 -10 5z"/>
<path d="M3231 1084 c0 -11 3 -14 6 -6 3 7 2 16 -1 19 -3 4 -6 -2 -5 -13z"/>
<path d="M3320 1075 c-7 -9 -19 -14 -27 -11 -14 6 -18 -10 -4 -18 4 -3 19 6
31 19 13 14 21 25 18 25 -3 0 -11 -7 -18 -15z"/>
<path d="M3453 1049 c14 -8 22 -8 30 0 8 8 3 11 -18 11 -26 -1 -28 -2 -12 -11z"/>
<path d="M3558 1053 c17 -2 47 -2 65 0 17 2 3 4 -33 4 -36 0 -50 -2 -32 -4z"/>
</g>
</svg>
